{"title":"Kick(2014) 720p BluRay x264 [DD 5.1CH][PGS][SumoMan]","uid":11170811,"size":2467706818,"categoryP":"video","categoryS":"hd___movies","magnet":"?xt=urn:btih:398a8e17714d0ccdb8442743193b77f769dbaefc&amp;dn=Kick%282014%29+720p+BluRay+x264+%5BDD+5.1CH%5D%5BPGS%5D%5BSumoMan%5D&amp;tr=udp%3A%2F%2Ftracker.openbittorrent.com%3A80&amp;tr=udp%3A%2F%2Fopen.demonii.com%3A1337&amp;tr=udp%3A%2F%2Ftracker.coppersurfer.tk%3A6969&amp;tr=udp%3A%2F%2Fexodus.desync.com%3A6969","seeders":1,"leechers":0,"uploader":"inovai","files":3,"time":1412700330,"description":"KICK (2014) 720p BluRay x264 [DD 5.1CH][PGS][SumoMan]\n\nCover:\n &lt;a href=&quot;\nhttp://forum.primetimeshow.in/viewtopic.php?f=7&amp;t=566&quot; rel=&quot;nofollow&quot; target=&quot;_NEW&quot;&gt;\nhttp://forum.primetimeshow.in/viewtopic.php?f=7&amp;t=566&lt;/a&gt;\n\nScreenshots:\n &lt;a href=&quot;\nhttp://m.primetimeshow.in/share-9D95_5433FAC2.html&quot; rel=&quot;nofollow&quot; target=&quot;_NEW&quot;&gt;\nhttp://m.primetimeshow.in/share-9D95_5433FAC2.html&lt;/a&gt;\n &lt;a href=&quot;\nhttp://m.primetimeshow.in/share-C59C_5433FAC2.html&quot; rel=&quot;nofollow&quot; target=&quot;_NEW&quot;&gt;\nhttp://m.primetimeshow.in/share-C59C_5433FAC2.html&lt;/a&gt;\n &lt;a href=&quot;\nhttp://m.primetimeshow.in/share-BACB_5433FAC2.html&quot; rel=&quot;nofollow&quot; target=&quot;_NEW&quot;&gt;\nhttp://m.primetimeshow.in/share-BACB_5433FAC2.html&lt;/a&gt;\n &lt;a href=&quot;\nhttp://m.primetimeshow.in/share-E3DA_5433FAC2.html&quot; rel=&quot;nofollow&quot; target=&quot;_NEW&quot;&gt;\nhttp://m.primetimeshow.in/share-E3DA_5433FAC2.html&lt;/a&gt;\n &lt;a href=&quot;\nhttp://m.primetimeshow.in/share-248B_5433FAC2.html&quot; rel=&quot;nofollow&quot; target=&quot;_NEW&quot;&gt;\nhttp://m.primetimeshow.in/share-248B_5433FAC2.html&lt;/a&gt;\n\nGeneral Info:\n\nFormat : Matroska\nFormat version : Version 4 / Version 2\nFile size : 2.28 GiB\nDuration : 2h 26mn\nOverall bit rate : 2 220 Kbps\nMovie name : Kick(2014) 720p BluRay x264 [DTS 5.1CH][PGS][SumoMan]\n\nVideo\nID : 1\nFormat : AVC\nFormat/Info : Advanced Video Codec\nFormat profile : &lt;a class=&quot;__cf_email__&quot; href=&quot;/cdn-cgi/l/email-protection&quot; data-cfemail=&quot;024f636b6c424e362c32&quot;&gt;[email&amp;#160;protected]&lt;/a&gt;&lt;script cf-hash='f9e31' type=&quot;text/javascript&quot;&gt;\n/* &lt;![CDATA[ */!function(){try{var t=&quot;currentScript&quot;in document?document.currentScript:function(){for(var t=document.getElementsByTagName(&quot;script&quot;),e=t.length;e--;)if(t[e].getAttribute(&quot;cf-hash&quot;))return t[e]}();if(t&amp;&amp;t.previousSibling){var e,r,n,i,c=t.previousSibling,a=c.getAttribute(&quot;data-cfemail&quot;);if(a){for(e=&quot;&quot;,r=parseInt(a.substr(0,2),16),n=2;a.length-n;n+=2)i=parseInt(a.substr(n,2),16)^r,e+=String.fromCharCode(i);e=document.createTextNode(e),c.parentNode.replaceChild(e,c)}}}catch(u){}}();/* ]]&gt; */&lt;/script&gt;\nFormat settings, CABAC : Yes\nFormat settings, ReFrames : 4 frames\nCodec ID : V_MPEG4/ISO/AVC\nDuration : 2h 26mn\nBit rate : 1 550 Kbps\nWidth : 1 280 pixels\nHeight : 544 pixels\nDisplay aspect ratio : 2.35:1\nFrame rate mode : Constant\nFrame rate : 23.976 fps\nColor space : YUV\nChroma subsampling : 4:2:0\nBit depth : 8 bits\nScan type : Progressive\nBits/(Pixel*Frame) : 0.093\nStream size : 1.58 GiB (69%)\nTitle : Kick(2014) 720p BluRay x264 [DTS 5.1CH][PGS][SumoMan]\nWriting library : x264\n\nAudio\nID : 3\nFormat : AC-3\nFormat/Info : Audio Coding 3\nMode extension : CM (complete main)\nFormat settings, Endianness : Big\nCodec ID : A_AC3\nDuration : 2h 26mn\nBit rate mode : Constant\nBit rate : 640 Kbps\nChannel(s) : 6 channels\nChannel positions : Front: L C R, Side: L R, LFE\nSampling rate : 48.0 KHz\nBit depth : 16 bits\nCompression mode : Lossy\nStream size : 672 MiB (29%)\nDefault : Yes\nForced : No\n\nText\nID : 2\nFormat : PGS\nMuxing mode : zlib\nCodec ID : S_HDMV/PGS\nCodec ID/Info : The same subtitle format used on BDs/HD-DVDs\nLanguage : English\nDefault : No\nForced : No\n\nMenu\n00:00:00.000 : en:Chapter 1\n00:01:40.434 : en:Chapter 2\n00:06:00.402 : en:Chapter 3\n00:20:27.643 : en:Chapter 4\n00:27:43.704 : en:Chapter 5\n00:41:32.824 : en:Chapter 6\n00:46:24.865 : en:Chapter 7\n00:51:17.700 : en:Chapter 8\n00:54:55.083 : en:Chapter 9\n00:57:10.761 : en:Chapter 10\n01:04:09.596 : en:Chapter 11\n01:14:26.504 : en:Chapter 12\n01:20:40.502 : en:Chapter 13\n01:30:02.897 : en:Chapter 14\n01:36:14.769 : en:Chapter 15\n01:40:45.665 : en:Chapter 16\n01:55:33.051 : en:Chapter 17\n02:03:41.664 : en:Chapter 18\n02:10:24.900 : en:Chapter 19\n02:23:45.367 : en:Chapter 20","torrent":{"xt":"urn:btih:398a8e17714d0ccdb8442743193b77f769dbaefc","amp;dn":"Kick%282014%29+720p+BluRay+x264+%5BDD+5.1CH%5D%5BPGS%5D%5BSumoMan%5D","amp;tr":["udp%3A%2F%2Ftracker.openbittorrent.com%3A80","udp%3A%2F%2Fopen.demonii.com%3A1337","udp%3A%2F%2Ftracker.coppersurfer.tk%3A6969","udp%3A%2F%2Fexodus.desync.com%3A6969"],"infoHash":"398a8e17714d0ccdb8442743193b77f769dbaefc","infoHashBuffer":{"type":"Buffer","data":[57,138,142,23,113,77,12,205,184,68,39,67,25,59,119,247,105,219,174,252]},"announce":[],"urlList":[]}}